# xmcd
#
# Track frame offsets:
#	150
#	14086
#	24524
#	39844
#	53755
#	66873
#	78336
#	99109
#	108297
#	131762
#	144615
#	156388
#	168814
#	183774
#	198310
#	212528
#	222026
#	233181
#	239524
#	252460
#	260320
#	271808
#	284934
#
# Disc length: 3992
#
# Revision: 1
# Processed by: cddbd v1.5.1PL0 Copyright (c) Steve Scherf et al.
# Submitted via: CDex 1.50
# Normalized: r0:TDELIM( - )
#
DISCID=460f9617
DTITLE=verzameld - country top 100 #4/4
DYEAR=1980
DGENRE=Country
TTITLE0=Bellamy Brothers - If I said you had a beautifull body
TTITLE1=Patti Page - how much is that doggie in the window
TTITLE2=Willy Nelson - always on my mind
TTITLE3=Glenn Campbell - rhinestone cowboy
TTITLE4=David houston - almost persuaded
TTITLE5=Dundee Major and Toni Wille - raised on love
TTITLE6=Lynyrd Skynyrd - made in the shade
TTITLE7=Wynn Stewart - love's gonna happen to me
TTITLE8=Don McLean - vincent
TTITLE9=Lynn Anderson - top of the world
TTITLE10=Billy Joe Spears - what have they done to my song ma
TTITLE11=Claude King - wolverton mountain
TTITLE12=Kenny Rogers - for the good times
TTITLE13=Anny Schilder - apple jack
TTITLE14=Boxcar Willie - my heart's deep in the heart of texas
TTITLE15=Johhny Cash - ballad of a teenage queen
TTITLE16=Tammy Wynette - stand by your man
TTITLE17=Waylon jennings - it's so easy
TTITLE18=Patsy Cline - I fall to pieces
TTITLE19=Mills Brothers - mr sandman
TTITLE20=Skeeter Davis - the end of the world
TTITLE21=Loretta Lynn - coalminer's daughter
TTITLE22=John Denver - take me home country roads
EXTD=YEAR: 1980
EXTT0=
EXTT1=
EXTT2=
EXTT3=
EXTT4=
EXTT5=
EXTT6=
EXTT7=
EXTT8=
EXTT9=
EXTT10=
EXTT11=
EXTT12=
EXTT13=
EXTT14=
EXTT15=
EXTT16=
EXTT17=
EXTT18=
EXTT19=
EXTT20=
EXTT21=
EXTT22=
PLAYORDER=
